<svg width="889" height="201" viewBox="0 0 889 201" xmlns="http://www.w3.org/2000/svg">
    <g fill="none" fill-rule="evenodd">
      <path d="M.6 61.3v52.3l61.2 28.9 62.6-65.9L83.4 2c-1.3.4-2.6 1-3.9 1.7l-68 39.1A21.4 21.4 0 0 0 .5 61.3" fill="#57B7DD"></path>
      <path fill="#F99132" d="M61.8 142.5l73.8 34.8L169 158l-44.6-81.4z"></path>
      <path d="M161 38L101 3.7A21.6 21.6 0 0 0 83.5 2l41 74.7 36.7-38.5z" fill="#A98BBC"></path>
      <path d="M169 158h.2a21.4 21.4 0 0 0 10.7-18.5V61.3c0-7.7-4-14.7-10.7-18.6l-8.1-4.6-36.7 38.5 44.7 81.5z" fill="#FF6D56"></path>
      <path d="M.6 113.6v25.9c0 7.6 4.2 14.7 10.8 18.5l23 13.3 27.4-28.8L.6 113.6z" fill="#8AC539"></path>
      <path d="M34.5 171.3l45 25.8a21.6 21.6 0 0 0 21.6 0l34.5-19.8-73.8-34.8-27.3 28.8z" fill="#FFBE0A"></path>
      <g>
        <path d="M697 122.5c0 10.4-8.5 14-15.7 14-12.9 0-14.3-6.5-14.3-9.3 0-2.4.7-5.7 3.7-7.7s7.7-2.2 13.8-2.2h12.4v5.2zm-27.4-25.7a7.7 7.7 0 0 1 3.1-5.3c2.5-2 6-3 10.4-3 4.7 0 8.3 1 10.7 3 2.1 2 3.2 4.6 3.2 8.3v4.2h-12.7c-7.5 0-15.4.4-21.6 4.9-5.6 4-8.8 10.4-8.8 18 0 13.9 10.8 22.8 27.4 22.8 6.8 0 14-2.6 18-6.5l.3 5.3H710V99.9c0-7.9-2.6-14-7.8-18.4a29 29 0 0 0-19-6.2c-7.8 0-14.1 2.1-19 6.2-4.6 3.9-7 8.6-7.4 14.2l12.8 1zM396.2 122.5c0 10.4-8.4 14-15.6 14-13 0-14.3-6.5-14.3-9.3 0-2.4.6-5.7 3.6-7.7 3.1-2 7.7-2.2 13.8-2.2h12.5v5.2zm-27.4-25.7a7.7 7.7 0 0 1 3.1-5.3c2.5-2 6-3 10.5-3 4.7 0 8.3 1 10.6 3 2.2 2 3.2 4.6 3.2 8.3v4.2h-12.6c-7.6 0-15.4.4-21.7 4.9-5.6 4-8.7 10.4-8.7 18 0 13.9 10.7 22.8 27.4 22.8 6.7 0 14-2.6 18-6.5l.3 5.3h10.4V99.9c0-7.9-2.6-14-7.8-18.4a29 29 0 0 0-19.1-6.2c-7.7 0-14 2.1-19 6.2-4.6 3.9-7 8.6-7.3 14.2l12.7 1zM535.5 112.2c0 8-1.2 14.3-4.3 18.6-2.7 3.8-6.8 5.7-12.3 5.7-5.6 0-9.6-1.9-12.4-5.7-3-4.3-4.6-10.5-4.6-18.6 0-7.9 1.5-13.6 4.6-18 2.8-3.8 6.8-5.7 12.4-5.7 5.6 0 9.6 1.9 12.3 5.7 3.2 4.4 4.3 10.1 4.3 18zm-2-61.6v30.2a20.9 20.9 0 0 0-14.5-5.5h-.2a27 27 0 0 0-22.2 10.5 40.7 40.7 0 0 0-7.8 26.4c0 11.5 2.5 20.4 7.8 27a27 27 0 0 0 22.2 10.5h.2c6.5 0 13-3.3 16.8-7.3l.4 6.1h10.4V50.6h-13zM808.7 123.7c-.2 4-1.5 7-4 9.1-2.9 2.5-6.6 3.7-10.9 3.7-5.6 0-9.6-1.9-12.4-5.7a30.7 30.7 0 0 1-4.7-18.3c0-8 1.6-14 4.7-18.3 2.8-3.8 6.8-5.7 12.4-5.7 4.3 0 8 1.2 11 3.7 2.5 2 3.7 5 4 9l12.7-.7c-.3-8-3-14-8.2-18.4-5.3-4.5-11.9-6.8-19.5-6.8a27 27 0 0 0-22.4 10.5 41.9 41.9 0 0 0-7.7 26.7c0 11.3 2.5 20 7.7 26.7a27 27 0 0 0 22.4 10.5c7.6 0 14.2-2.3 19.5-6.8 5.2-4.4 7.8-10.3 8.2-18.5l-12.8-.7zM753.4 136c-2.5 1.8-5.6 1.8-8.4-.2-1.3-1-3.5-3.2-3.5-7.7V89.7h12.7V76.5h-12.7V63h-13.2v13.6h-7.6v13.2h7.6v38.4c0 9.2 4 16.6 11 20a20.3 20.3 0 0 0 21.5-2.3l.4-.4-7.3-9.9-.5.4zM623.3 126l-14-49.4H597L583 126l-14.2-49.4h-12.6l20.6 71.9H589L603.1 99l14.1 49.4h12.2l20.6-72h-12.6zM285.5 81.3c0 4.5-1.3 7.6-3.8 9.6-3 2.2-7.7 3.3-14 3.3h-15v-26h14.5c18.3.3 18.3 9.3 18.3 13m-.5 50.1c-3 2.7-7.5 4-13.3 4h-19v-28H273c5.3.2 9.3 1.5 12.3 4.1 2.8 2.5 4 5.4 4 9.2 0 4.7-1.3 8.2-4.2 10.7m6.3-31.5a25 25 0 0 0 7.3-18.3 24 24 0 0 0-8.8-19.8 36.8 36.8 0 0 0-23.3-6.6h-26.8v93.4h31.7c9.4 0 17-2.5 22.4-7.4 5.7-5.1 8.5-12 8.5-20.6 0-6.2-2.2-11.8-6.5-16.7-1.4-1.5-2.9-2.8-4.5-4M450 75.3c-17 0-27.2 11-27.2 29.4v43.8H436v-43.9c0-4.8 1.4-16 14.2-16 12.8 0 14.1 11.2 14.1 16v44h13.1v-43.9c0-18.4-10.2-29.4-27.2-29.4M861.5 75.3c-6 0-11.3 1.6-16 5.4v-30h-13v97.8h13v-43.6c0-10.8 7.6-16.4 15-16.4 9.3 0 13.5 8.3 13.5 16v44h13.2v-42.8c0-28.9-21.4-30.4-25.7-30.4M341.3 75.3c-17 0-27.3 11-27.3 29.4v43.8h13.1v-43.9c0-4.8 1.4-16 14.2-16 1 0 2.9 0 4.8.6l3.4-12.9a35 35 0 0 0-8.2-1" fill="white"></path>
      </g>
    </g>
  </svg>