<svg width="16" height="16" viewBox="0 0 16 16" fill="none" xmlns="http://www.w3.org/2000/svg">
<rect width="16" height="16" rx="3" fill="#121212"/>
<path d="M9.10731 7.86116C9.40669 7.78392 9.6722 7.60918 9.8624 7.36423C10.0526 7.11928 10.1568 6.8179 10.1587 6.50714C10.1551 6.1382 10.0077 5.78538 9.74826 5.52449C9.48878 5.26359 9.13787 5.11544 8.77093 5.11185H8.23841C8.396 4.84513 8.46029 4.53306 8.42102 4.22534C8.38176 3.91763 8.24121 3.63197 8.02176 3.41389C7.89305 3.28328 7.73998 3.1795 7.57131 3.10847C7.40264 3.03745 7.22169 3.00059 7.03883 3H5V9.33671H5.73092V5.80319H6.72183V10.9464C6.65113 11.7879 6.1095 12.3658 5 12.3222V13.025C5.58725 13.025 6.40825 12.9103 6.82446 12.4942C7.02778 12.2927 7.18893 12.0524 7.2984 11.7874C7.40788 11.5224 7.46346 11.238 7.46188 10.951V7.90244H8.28973L10.5201 10.99H11.3651L9.10731 7.86116ZM7.11181 5.07631H5.73092V3.71886H7.03883C7.20134 3.73494 7.35277 3.80892 7.46576 3.92745C7.57875 4.04598 7.64585 4.20124 7.65493 4.36516C7.66402 4.52909 7.6145 4.69088 7.51531 4.8213C7.41612 4.95172 7.27381 5.04217 7.11409 5.07631H7.11181ZM7.4539 7.19275V5.81695H8.77093C8.95238 5.81695 9.1264 5.88943 9.25471 6.01843C9.38302 6.14744 9.4551 6.32241 9.4551 6.50485C9.4551 6.68729 9.38302 6.86226 9.25471 6.99127C9.1264 7.12028 8.95238 7.19275 8.77093 7.19275H7.4539Z" fill="white"/>
</svg>
